<?xml version="1.0" encoding="utf-8"?>
<!-- Generator: Adobe Illustrator 19.1.0, SVG Export Plug-In . SVG Version: 6.00 Build 0)  -->
<svg version="1.1" id="Слой_1" xmlns="http://www.w3.org/2000/svg" xmlns:xlink="http://www.w3.org/1999/xlink" x="0px" y="0px"
	 viewBox="0 0 80 60" style="enable-background:new 0 0 80 60;" xml:space="preserve">
<style type="text/css">
	.st0{fill:#506EF2;}
</style>
<path class="st0" d="M27.7,0C16.8,0,11.5,5.3,11.5,16.3c0,10.9,5.3,16.3,16.3,16.3c10.9,0,16.3-5.3,16.3-16.3C44,5.3,38.7,0,27.7,0z
	 M27.7,25.2c-6.1,0-8.9-2.8-8.9-8.9s2.8-8.9,8.9-8.9c6.1,0,8.9,2.8,8.9,8.9S33.9,25.2,27.7,25.2z"/>
<path class="st0" d="M63.7,0C52.8,0,47.5,5.3,47.5,16.3c0,10.9,5.3,16.3,16.3,16.3c10.9,0,16.3-5.3,16.3-16.3C80,5.3,74.7,0,63.7,0z
	 M63.7,25.2c-6.1,0-8.9-2.8-8.9-8.9s2.8-8.9,8.9-8.9s8.9,2.8,8.9,8.9S69.9,25.2,63.7,25.2z"/>
<rect x="1" y="1" class="st0" width="7" height="31"/>
<g>
	<path d="M1,36.7h6.4c5.7,0,9.3,3.3,9.3,9s-3.6,9.1-9.3,9.1H1V36.7z M7.2,50.9c3.1,0,4.9-1.8,4.9-5.3c0-3.4-1.9-5.2-4.9-5.2H5.4
		v10.5H7.2z"/>
	<path d="M19,41.7h4.4v13H19V41.7z M19.1,36.7h4.3v3.4h-4.3V36.7z"/>
	<path d="M31.8,56.4c1.6,0,3-0.6,3-2.5v-0.4c0-0.2,0-0.5,0-0.5h0c-0.8,0.9-1.7,1.4-3.3,1.4c-3.9,0-5.9-3.2-5.9-6.5
		c0-3.3,1.9-6.4,5.8-6.4c1.2,0,2.6,0.4,3.5,1.3h0.1c0,0,0-0.2,0-0.3v-0.7h4.1v11.8c0,4.7-3.8,6.5-7.3,6.5c-1.7,0-3.7-0.5-4.9-1.2
		l1.2-3.3C29.2,56.1,30.5,56.4,31.8,56.4z M32.5,50.7c1.1,0,2.3-0.6,2.3-2.9c0-2.3-1.2-2.8-2.5-2.8c-1.5,0-2.3,1.1-2.3,2.6
		C30,49.3,30.8,50.7,32.5,50.7z"/>
	<path d="M42.1,41.7h4.4v13h-4.4V41.7z M42.1,36.7h4.3v3.4h-4.3V36.7z"/>
	<path d="M50.1,45.3h-1.7v-3.4h1.8v-3.7h4.2v3.7h2.7v3.4h-2.7v4c0,1.5,1.5,1.7,2.3,1.7c0.2,0,0.3,0,0.6,0v3.8
		c-0.3,0-0.7,0.1-1.2,0.1c-2.1,0-6.1-0.6-6.1-4.9V45.3z"/>
	<path d="M66.2,46.6h0.4v-0.2c0-1.1-0.9-1.4-1.8-1.4c-1.3,0-2.5,0.6-3.6,1.2l-1.5-3.1c1.1-0.9,3.4-1.7,5.5-1.7c3.6,0,5.8,2,5.8,5.3
		v8h-4v-0.8c0-0.4,0.1-0.8,0.1-0.8h-0.1c-0.9,1.2-2.4,1.9-3.9,1.9c-2.5,0-4.2-1.7-4.2-4C58.8,47.6,63,46.6,66.2,46.6z M64.4,51.7
		c1.3,0,2.2-1.2,2.2-2.3v-0.4h-0.4c-1.3,0-3.1,0.4-3.1,1.5C63.1,51.2,63.6,51.7,64.4,51.7z"/>
	<path d="M73.6,36.7H78v12.7c0,1.2,0.2,1.7,1.2,1.7c0.1,0,0.3,0,0.5,0v3.8c-0.3,0-0.8,0.1-1.3,0.1c-2.3,0-4.8-0.6-4.8-4.9V36.7z"/>
</g>
</svg>
